<svg xmlns="http://www.w3.org/2000/svg" width="699.505" height="119.999" viewBox="0 0 1434 246">
  <defs>
    <style>
      .cls-1 {
        fill-rule: evenodd;
      }
    </style>
  </defs>
  <path id="Mic_Drop_Results_copy_2" data-name="Mic Drop Results copy 2" class="cls-1" d="M35.88,186.375v-4.4l-4-1.4q-3.8-1-5-3.6a16.937,16.937,0,0,1-1.2-7v-49.6l-0.8-45.6,43,111.6h11.2l40.8-112.8-0.4,53.6v43.4a17.759,17.759,0,0,1-.9,6.3q-0.9,2.3-4.7,3.7l-4.4,1.4v4.4h48.6v-4.4l-4-1.4q-3.8-1.4-4.8-3.6a15.984,15.984,0,0,1-1-6.4q-0.2-11.4-.2-23v-54.7q0-11.5.2-23.1a13.236,13.236,0,0,1,1.4-6.5,8.543,8.543,0,0,1,5.2-3.7l3.2-1v-4.4h-39l-35.4,97.8-37.6-97.8H7.88v4.4l4.6,1.8q4,1.4,5,3.9a17.784,17.784,0,0,1,1,6.5v99a15.479,15.479,0,0,1-1.4,7.1,8.3,8.3,0,0,1-5.2,3.9l-4,1.2v4.4h28Zm162.7-114.2a13.737,13.737,0,0,0,4.6-10.6,13.66,13.66,0,0,0-4.6-10.7,17.348,17.348,0,0,0-22.4,0,13.65,13.65,0,0,0-4.6,10.7,13.727,13.727,0,0,0,4.6,10.6A17.033,17.033,0,0,0,198.58,72.175Zm11.6,114.2v-3.8l-2.2-.6a9.189,9.189,0,0,1-5.3-3.6,11.96,11.96,0,0,1-1.5-6.4v-54l0.6-28.4-2.4-2.2-35,11.6v3.6l2.8,0.6q4,0.8,5.5,3.1a11.441,11.441,0,0,1,1.5,6.3q0.2,5.6.2,10.9v48.3a14.118,14.118,0,0,1-1.6,6.4q-1.4,2.4-5.4,3.6l-3,.8v3.8h45.8Zm76.56-3.5a37.8,37.8,0,0,0,15.3-18.3l-3.2-2.4a37.942,37.942,0,0,1-11,10.1q-6,3.5-15.2,3.5-15.6,0-23-10.4t-7.4-29.8q0-22.6,6.7-32.7t19.3-10.1a9.913,9.913,0,0,1,5.3,1.2q1.9,1.2,2.7,4.6a20.842,20.842,0,0,1,.1,5.4,44.323,44.323,0,0,0-.1,6.8,17.609,17.609,0,0,0,4.1,10.2,11.511,11.511,0,0,0,9.1,4,12.15,12.15,0,0,0,8.5-3q3.3-3,3.3-8.6a21.2,21.2,0,0,0-4.2-12.5,30.761,30.761,0,0,0-12.2-9.7q-8-3.8-19.4-3.8a54.755,54.755,0,0,0-25.7,6.1,47.21,47.21,0,0,0-18.7,17.5q-7,11.4-7,27.6t6.3,27.5a42.524,42.524,0,0,0,17.3,17.2,51.223,51.223,0,0,0,24.6,5.9Q276.439,189.175,286.74,182.875Zm118.1,3.5q21.4,0,37.5-7.8a57.919,57.919,0,0,0,25-22.6q8.9-14.8,8.9-36,0-20.8-8.2-35.5a54.879,54.879,0,0,0-23.4-22.5q-15.2-7.8-36.2-7.8h-52.6v4.2l4.2,1.2q6.2,2,6.2,10.2,0.2,11.6.2,23.2v54.5q0,11.9-.2,23.3,0,8-6.4,10l-4,1.4v4.2h49Zm-9.8-34.1v-64.4q0-14.1.2-27.9h11q13.8,0,22.5,5.6t12.9,18.8q4.2,13.2,4.2,35.8t-4.2,35.9q-4.2,13.3-13.1,18.9t-23.1,5.6h-10.2Q395.039,166.579,395.04,152.275Zm136.78,34.1v-3.8l-6-1.8a8.674,8.674,0,0,1-5.4-3.5,11.455,11.455,0,0,1-1.6-6.3v-52.4a36.759,36.759,0,0,1,3.1-6.3,26.7,26.7,0,0,1,3.7-4.7q2.4-2.8,4.9-2.5a6.927,6.927,0,0,1,4.5,2.7l0.4,0.4q5.8,7.2,13.8,7.2a13.092,13.092,0,0,0,9.2-3.5q3.8-3.5,3.8-10.3a14.228,14.228,0,0,0-3.8-10.2q-3.8-4-11.4-4a22.067,22.067,0,0,0-10.8,3,42.286,42.286,0,0,0-10,7.8,47.228,47.228,0,0,0-7.6,10.4v-1.4l-1.8-17.6-2.4-2.2-32.6,11.6v3.6l3,0.8q4,0.8,5.4,3.1a14.361,14.361,0,0,1,1.6,6.7v58.6a11.96,11.96,0,0,1-1.5,6.4q-1.5,2.4-5.5,3.4l-3,1v3.8h50Zm107.8-3.3a42.289,42.289,0,0,0,17.1-17.6q6.1-11.5,6.1-27.3,0-16-6.5-27.3a45.078,45.078,0,0,0-17.6-17.4,54.69,54.69,0,0,0-50.2,0,44.859,44.859,0,0,0-17.6,17.5q-6.5,11.4-6.5,27.2t6.1,27.2a42.877,42.877,0,0,0,17.2,17.6q11.1,6.2,25.9,6.2Q628.62,189.175,639.62,183.075Zm-37.6-3.4q-4.4-3.9-6.5-13.7t-2.1-27.4q0-17.8,2.1-27.7t6.5-13.8q4.4-3.9,11.6-3.9t11.7,3.9q4.5,3.9,6.5,13.8t2,27.7q0,17.6-2,27.4t-6.5,13.7q-4.5,3.9-11.7,3.9T602.02,179.675Zm111.56,52.9v-3.8l-3.8-1q-7-2-7-10,0-8.2-.1-15.2t-0.1-13v-6a46.778,46.778,0,0,0,12.3,4.2,74.024,74.024,0,0,0,14.7,1.4q19.4,0,30.7-13.5t11.3-37.7q0-25-10.3-37.8t-27.3-12.8a54.141,54.141,0,0,0-31.2,9.4l-1.8-7.4-2.4-2-32.2,11.6v3.6l3,0.6q4,0.8,5.4,3.1a12.578,12.578,0,0,1,1.4,6.5q0.2,5.6.2,10.1v65.7q0,6.8-.1,14.1t-0.1,15.5a11.29,11.29,0,0,1-1.6,6.5q-1.6,2.3-5.6,3.3l-2.6.8v3.8h47.2Zm-10.4-54.8v-75.6a42.16,42.16,0,0,1,9.4-4,31.258,31.258,0,0,1,8.2-1.2q10.6,0,16.4,9.3t5.8,32.5q0,23.4-6.1,32.9t-16.7,9.5a42.96,42.96,0,0,1-17-3.4h0Zm172.2,8.6v-4.2l-4.8-1.4q-3.8-1-5.1-3.4a13.425,13.425,0,0,1-1.3-6.4q-0.2-10-.2-21.4v-25.6h14.4l29.8,62.4h35.4v-4l-3.8-.8a17.783,17.783,0,0,1-10.6-9l-27.2-53q14.2-4.8,21.1-13.8t6.9-17.8q0-16-12.7-24.9t-36.1-8.9h-56v4.2l4.4,1.4q4,1.2,5,3.5a16.821,16.821,0,0,1,1,6.5q0.2,11.6.2,23.2v54.8q0,11.6-.2,23.2a15.46,15.46,0,0,1-1.1,6.5q-1.1,2.3-5.1,3.5l-4.2,1.2v4.2h50.2Zm-11.4-92.3q0-10.1.1-18.2t0.1-15.9h11.4q14,0,20.3,7.1t6.3,21.9q0,14.8-6.6,22t-20.8,7.2h-10.8v-24.1Zm101.9-.6a48.7,48.7,0,0,0-18.4,17.5q-7.1,11.4-7.1,27.8,0,15.8,6.1,27.1a42.261,42.261,0,0,0,16.9,17.3q10.8,6,25,6t24.5-6.1a43.748,43.748,0,0,0,16.3-17.1l-3.2-3a40.119,40.119,0,0,1-11.4,9.3q-6.2,3.3-16.2,3.3-14.4,0-21.9-9t-7.7-29.6h60.2a21.117,21.117,0,0,0,.8-4.3c0.13-1.531.2-3.166,0.2-4.9a43.364,43.364,0,0,0-4.9-20.9,35.889,35.889,0,0,0-13.9-14.3q-9-5.2-21.6-5.2A49.209,49.209,0,0,0,965.88,93.475Zm37.1,8.7q3.795,9,1.6,29.2h-35.8q0.4-15,2.9-23.3t6.8-11.6a16.108,16.108,0,0,1,10.1-3.3Q999.179,93.175,1002.98,102.175Zm100.48,78.3a27.521,27.521,0,0,0,11.3-22.9,27.9,27.9,0,0,0-6.2-18.2q-6.195-7.6-20.8-12.2l-8.6-2.6q-10.2-3.4-14.8-7.3a12.613,12.613,0,0,1-4.6-10.1,11.736,11.736,0,0,1,5.5-10.3,22.23,22.23,0,0,1,12.7-3.7q6.8,0,10.1,2.5t6.5,8.9l6.2,11.4h5.2l1.2-21.4a70.222,70.222,0,0,0-13.5-5.3,56.778,56.778,0,0,0-15.1-1.9q-12.6,0-21.4,4.2a31.782,31.782,0,0,0-13.4,11.3,28.256,28.256,0,0,0-4.6,15.7q0,11,6.9,18.3t18.7,10.9l8.8,2.8q10.8,3.4,15,7.4a13.716,13.716,0,0,1,4.2,10.4,13.046,13.046,0,0,1-5.6,11.1q-5.6,4.1-15,4.1-7.605,0-12.5-3.6t-8.7-11l-6-11.4h-5.4v23.6a68.572,68.572,0,0,0,14.7,5.9,65.761,65.761,0,0,0,17.3,2.1Q1092.155,189.175,1103.46,180.475Zm68.88,4.9a66.878,66.878,0,0,0,14.8-9.6l1.8,12.6,33.8-2v-3.8l-2.6-.8c-2.53-.8-4.17-2.031-4.9-3.7a16.963,16.963,0,0,1-1.1-6.7v-52.4l0.6-28.2-2.2-2.2-33.4,7v3.6l2.2,0.6q3.6,1,4.9,2.8t1.3,6.4l-0.6,61.6a43.861,43.861,0,0,1-9.7,5.1,30.658,30.658,0,0,1-10.5,1.7,13.987,13.987,0,0,1-9.3-3.1q-3.7-3.1-3.7-9.9v-45.4l1-28.2-2.2-2.2-34.2,6.6v3.6l2.4,0.8q3.6,0.8,5,2.8t1.4,6.4l-0.6,50.2q-0.195,11,3.5,17.7a21.582,21.582,0,0,0,10.1,9.6,34.059,34.059,0,0,0,14.2,2.9A41.45,41.45,0,0,0,1172.34,185.375Zm103.58,1v-3.8l-2.8-.8a8.265,8.265,0,0,1-5.3-3.5,13.847,13.847,0,0,1-1.7-6.5v-95.8l0.8-28.2-2.6-1.8-35,8.4v3.8l3,0.8q4.005,1,5.4,3.1t1.4,6.3v76q0,6.8-.1,13.7t-0.1,13.7q0,7.8-6.6,10l-3,.8v3.8h46.6Zm57.42-.9a26.706,26.706,0,0,0,10.6-10.3l-2.6-3a32.932,32.932,0,0,1-6.4,5.1,13.794,13.794,0,0,1-7.2,1.9,9.757,9.757,0,0,1-7.7-3.6q-3.105-3.6-3.1-10.8v-68.2h23v-6.2h-22.8l0.6-27.8h-6l-13,18a28.265,28.265,0,0,1-7.5,7.2,26.73,26.73,0,0,1-9.9,3.6l-5.4.8v4.4h14.2v47.4q0,5.8-.1,10.1t-0.1,9.1q0,13.8,7.1,19.9t19.5,6.1Q1326.545,189.175,1333.34,185.475Zm81.36-5a27.521,27.521,0,0,0,11.3-22.9,27.9,27.9,0,0,0-6.2-18.2q-6.195-7.6-20.8-12.2l-8.6-2.6q-10.2-3.4-14.8-7.3a12.613,12.613,0,0,1-4.6-10.1,11.736,11.736,0,0,1,5.5-10.3,22.23,22.23,0,0,1,12.7-3.7q6.795,0,10.1,2.5t6.5,8.9l6.2,11.4h5.2l1.2-21.4a70.222,70.222,0,0,0-13.5-5.3,56.778,56.778,0,0,0-15.1-1.9q-12.6,0-21.4,4.2a31.782,31.782,0,0,0-13.4,11.3,28.256,28.256,0,0,0-4.6,15.7q0,11,6.9,18.3t18.7,10.9l8.8,2.8q10.8,3.4,15,7.4a13.716,13.716,0,0,1,4.2,10.4,13.046,13.046,0,0,1-5.6,11.1q-5.6,4.1-15,4.1-7.605,0-12.5-3.6t-8.7-11l-6-11.4h-5.4v23.6a68.572,68.572,0,0,0,14.7,5.9,65.761,65.761,0,0,0,17.3,2.1Q1403.4,189.175,1414.7,180.475Z"/>
</svg>
