<svg xmlns="http://www.w3.org/2000/svg" width="854.626" height="119.999" viewBox="0 0 1752 246">
  <defs>
    <style>
      .cls-1 {
        fill: #fff;
        fill-rule: evenodd;
      }
    </style>
  </defs>
  <path id="Mic_Drop_Results" data-name="Mic  Drop  Results" class="cls-1" d="M198.188,186.8v-2.059l-4.617-1.442q-3.99-1.235-5.352-4.015a16.649,16.649,0,0,1-1.364-7.311V120.084l-0.63-51.276,45.753,118h10.494L286.336,67.366l-0.42,58.9V172.6a15.576,15.576,0,0,1-1.05,6.384q-1.051,2.268-5.037,3.913l-4.407,1.853V186.8h52.259v-2.059l-4.2-1.853q-3.988-1.647-5.037-3.913A15.545,15.545,0,0,1,317.4,172.6V64.895a13.417,13.417,0,0,1,1.469-6.693q1.466-2.573,5.457-4.016l3.358-1.236V50.892H286.336l-36.519,99.669L210.99,50.892H170.484v2.059l5.457,2.471q3.984,1.651,4.932,4.119a18.865,18.865,0,0,1,.945,6.59V171.565q0,9.476-7.136,11.738l-4.2,1.442V186.8h27.7ZM365.249,69.528a14.573,14.573,0,0,0,4.827-11.223,14.494,14.494,0,0,0-4.827-11.326,17.279,17.279,0,0,0-11.963-4.324,17.653,17.653,0,0,0-12.068,4.325,14.342,14.342,0,0,0-4.932,11.326,14.42,14.42,0,0,0,4.932,11.223,17.4,17.4,0,0,0,12.068,4.427A17.033,17.033,0,0,0,365.249,69.528ZM377.631,186.8v-2.059l-2.1-.618a9.641,9.641,0,0,1-5.561-3.707,12.122,12.122,0,0,1-1.574-6.589v-57.66l0.629-29.242-2.1-2.059L328.52,97.02v2.059l2.939,0.618q4.2,0.825,5.771,2.986t1.574,6.486v64.456a12.122,12.122,0,0,1-1.574,6.589q-1.574,2.472-5.771,3.707l-2.939.824V186.8h49.111Zm78.7-3.5A39.631,39.631,0,0,0,472.5,164.564l-2.1-1.647a43.159,43.159,0,0,1-11.753,10.5q-6.09,3.5-15.951,3.5-16.37,0-24.24-11.018t-7.87-31.815q0-23.886,7.03-34.8t19.834-10.914a9.188,9.188,0,0,1,4.932,1.133q1.781,1.134,2.623,4.633a25.236,25.236,0,0,1,0,6.486,44.276,44.276,0,0,0-.21,7.723,19.344,19.344,0,0,0,4.408,11.326A12.47,12.47,0,0,0,459.063,124,13.318,13.318,0,0,0,468.3,120.8q3.567-3.19,3.568-8.958a22.457,22.457,0,0,0-4.407-13.076,31.374,31.374,0,0,0-12.8-10.193q-8.4-3.909-20.567-3.913A60.082,60.082,0,0,0,406.7,90.945a49.325,49.325,0,0,0-19.938,18.121q-7.452,11.844-7.451,28.521,0,16.889,6.821,28.521a45.4,45.4,0,0,0,18.469,17.71,55.214,55.214,0,0,0,25.92,6.075Q445.42,189.893,456.334,183.3ZM581,186.8q22.874,0,39.772-8.031a61.046,61.046,0,0,0,26.339-23.27q9.444-15.237,9.444-36.861,0-21.207-8.709-36.346a58.268,58.268,0,0,0-24.766-23.27q-16.055-8.133-38.3-8.134H529.371v2.059l4.407,1.647q6.716,2.268,6.716,10.5V172.6q0,7.828-6.716,10.5l-4.407,1.648V186.8H581ZM571.976,55.01h9.864q14.688,0,23.716,5.869t13.327,19.769q4.3,13.9,4.3,38.2t-4.3,38.2q-4.305,13.9-13.537,19.769T581,182.686h-9.024V55.01ZM710.913,186.8v-2.059l-6.716-1.853q-7.348-2.057-7.345-10.3V115.141a52.819,52.819,0,0,1,2.623-5.869,15.538,15.538,0,0,1,3.463-4.427q2.307-2.881,5.037-2.574a7,7,0,0,1,4.827,3.192l0.42,0.412q6.714,8.649,15.531,8.648a13.822,13.822,0,0,0,9.759-3.809Q742.6,106.905,742.6,99.9a15.041,15.041,0,0,0-4.2-10.914q-4.2-4.324-12.173-4.324A24.086,24.086,0,0,0,714.8,87.753a44.145,44.145,0,0,0-18.154,18.533v-1.647l-1.889-17.71-2.1-2.059-36.1,11.944v2.059L659.7,99.7q4.2,0.825,5.771,2.986t1.574,6.692v64.456a11.7,11.7,0,0,1-1.574,6.383q-1.573,2.472-5.771,3.707l-3.149.824V186.8h54.358Zm107.142-3.4A45.077,45.077,0,0,0,836.1,165.079q6.4-11.839,6.4-28.109t-6.821-28.007A46.494,46.494,0,0,0,817.11,90.945a59.485,59.485,0,0,0-53.413.1,46.975,46.975,0,0,0-18.679,18.121q-6.822,11.739-6.821,27.8t6.4,28.006a44.722,44.722,0,0,0,18.154,18.43q11.753,6.487,27.7,6.487T818.055,183.406Zm-39.457-1.75q-4.515-4.118-6.506-14.621T770.1,137.381q0-19.353,1.994-29.859T778.6,92.9q4.511-4.117,11.858-4.119T802.209,92.9q4.407,4.122,6.4,14.621t1.994,29.859q0,19.152-1.994,29.654t-6.4,14.621q-4.407,4.122-11.753,4.119T778.6,181.656Zm113.647,52.512v-2.06l-3.987-1.029q-7.556-2.061-7.556-10.3V185.157q11.334,4.734,27.914,4.736,21.195,0,32.845-14.209t11.648-38.92q0-25.122-10.6-38.612T913.863,84.664a67.8,67.8,0,0,0-17.525,2.265,60.58,60.58,0,0,0-15.426,6.384l-1.889-6.384-2.1-2.059L841.246,96.814v2.059l2.938,0.618q4.2,0.825,5.772,3.089t1.574,6.8V221.4q0,7.824-7.766,9.885l-2.518.823v2.06h51Zm-10.913-53.542V97.637q9.444-4.942,17.21-4.942,11.121,0,17,9.988t5.876,34.9q0,24.92-6.191,35.626t-16.685,10.708a44.587,44.587,0,0,1-17.21-3.295h0ZM1063.5,186.8v-2.059l-5.03-1.853q-3.99-1.236-5.25-3.707a14.049,14.049,0,0,1-1.26-6.384V121.937h14.27l31.06,64.867h37.57v-1.853l-2.73-1.03a22.224,22.224,0,0,1-6.4-3.81,20.65,20.65,0,0,1-4.3-5.663l-29.17-56.836q14.9-4.941,21.82-14t6.93-18.121q0-16.265-13.22-25.432t-37.99-9.164h-60.02v2.059l4.82,1.853q3.99,1.443,5.14,3.81a15.017,15.017,0,0,1,1.16,6.487V172.8a14.472,14.472,0,0,1-1.26,6.693q-1.26,2.37-5.46,3.809l-4.4,1.442V186.8h53.72ZM1051.96,55.01h11.12q14.91,0,21.2,7.722t6.3,23.579q0,15.652-6.72,23.579t-21.83,7.928h-10.07V55.01Zm105.25,35.831a50.5,50.5,0,0,0-19.41,18.018q-7.56,11.846-7.56,28.727,0,16.271,6.51,28.007a44.735,44.735,0,0,0,18.05,18.018q11.535,6.279,26.44,6.281,15.12,0,25.92-6.384a47.746,47.746,0,0,0,17.32-17.709l-2.1-1.854a41.5,41.5,0,0,1-12.17,9.679q-6.51,3.3-17,3.295-15.54,0-23.4-9.782-7.875-9.779-8.08-32.022h62.54a18.076,18.076,0,0,0,.84-4.221q0.21-2.365.21-4.634a43.663,43.663,0,0,0-5.14-21.313,37.64,37.64,0,0,0-14.8-14.827q-9.66-5.454-23.3-5.457A53.144,53.144,0,0,0,1157.21,90.842Zm38.72,7.825q3.78,9.885,1.68,32.331h-35.88q0.195-16.68,2.62-25.844t6.71-12.768a15.659,15.659,0,0,1,10.39-3.6Q1192.16,88.783,1195.93,98.667Zm101.69,82.165a28.658,28.658,0,0,0,12.07-24.093,29.059,29.059,0,0,0-6.51-19.049q-6.51-7.924-21.62-12.458l-9.44-2.677q-10.5-3.5-15.85-7.62a13.312,13.312,0,0,1-5.35-11.12,12.384,12.384,0,0,1,6.3-11.12,25.027,25.027,0,0,1,13.43-3.913q7.77,0,11.65,2.78t7.87,9.575l7.34,12.768h2.1l1.26-22.241a61.436,61.436,0,0,0-13.95-5.251,65.631,65.631,0,0,0-15.43-1.75q-20.355,0-31.27,9.473T1229.3,117.2a26.929,26.929,0,0,0,7.35,19.151q7.35,7.828,20.15,11.532l8.81,2.677q11.97,3.5,16.37,7.825a14.9,14.9,0,0,1,4.41,11.12,13.843,13.843,0,0,1-6.19,11.841q-6.2,4.431-16.27,4.428-8.6,0-14.16-4.016t-10.18-12.253l-7.14-12.355h-2.1l-0.21,24.5a86.829,86.829,0,0,0,15.12,5.869,66.444,66.444,0,0,0,18.46,2.368Q1285.545,189.893,1297.62,180.832Zm68.63,5.251a74.81,74.81,0,0,0,15-9.369l1.89,12.149,36.73-2.059v-2.059l-2.1-.618c-2.8-1.1-4.61-2.471-5.45-4.118a15.723,15.723,0,0,1-1.26-7V117.2l0.63-29.242-2.1-2.059-36.73,7.825v2.059l2.1,0.618q3.975,0.825,5.46,2.78,1.455,1.959,1.46,6.693l-0.84,67.132a37.6,37.6,0,0,1-9.23,4.942,31.061,31.061,0,0,1-10.49,1.648,15.168,15.168,0,0,1-9.76-3.089q-3.885-3.09-3.89-9.679V117.2l1.05-29.242-2.09-2.059-37.57,7.207v2.059l2.52,0.824a9.2,9.2,0,0,1,5.24,2.883q1.68,2.061,1.68,6.8l-0.63,52.923q-0.21,11.328,3.68,18.225a22.894,22.894,0,0,0,10.7,9.987,35.927,35.927,0,0,0,15,3.089A44.17,44.17,0,0,0,1366.25,186.083Zm104.41,0.721v-2.059l-2.73-.618a9.884,9.884,0,0,1-5.66-3.81,12.041,12.041,0,0,1-1.68-6.692q0-7.413-.11-14.93t-0.1-15.136V73.132l0.84-28.83-2.52-1.853L1420.29,51.3v2.059l2.73,0.618c2.8,0.689,4.75,1.75,5.88,3.192a10.145,10.145,0,0,1,1.68,6.281V173.625q0,7.828-7.56,10.3l-2.52.824V186.8h50.16Zm58.56-1.029a30.722,30.722,0,0,0,11.54-11.121l-2.1-2.059a34.491,34.491,0,0,1-6.71,5.869,14.036,14.036,0,0,1-7.77,2.162,10.54,10.54,0,0,1-8.29-3.706q-3.255-3.708-3.25-10.915V91.871h23.71V87.753h-23.5l0.63-28.83h-2.1l-17.21,18.739a45.432,45.432,0,0,1-9.34,7.207,40.324,40.324,0,0,1-11.23,4.119l-5.04.824v2.059h14.48V162.3q0,14.416,7.45,21t20.89,6.59Q1521.865,189.893,1529.22,185.775Zm81.11-4.943a28.633,28.633,0,0,0,12.07-24.093,29.105,29.105,0,0,0-6.5-19.049q-6.51-7.924-21.62-12.458l-9.45-2.677q-10.485-3.5-15.84-7.62a13.286,13.286,0,0,1-5.35-11.12,12.394,12.394,0,0,1,6.29-11.12,25.052,25.052,0,0,1,13.43-3.913q7.77,0,11.65,2.78t7.87,9.575l7.35,12.768h2.1l1.26-22.241a61.335,61.335,0,0,0-13.96-5.251,65.631,65.631,0,0,0-15.43-1.75q-20.355,0-31.27,9.473T1542.02,117.2a26.964,26.964,0,0,0,7.34,19.151q7.35,7.828,20.15,11.532l8.82,2.677q11.955,3.5,16.37,7.825a14.9,14.9,0,0,1,4.41,11.12,13.853,13.853,0,0,1-6.2,11.841q-6.18,4.431-16.26,4.428-8.61,0-14.17-4.016t-10.18-12.253l-7.13-12.355h-2.1l-0.21,24.5a86.72,86.72,0,0,0,15.11,5.869,66.518,66.518,0,0,0,18.47,2.368Q1598.265,189.893,1610.33,180.832Z"/>
</svg>
