<svg xmlns="http://www.w3.org/2000/svg" width="854.626" height="119.999" viewBox="0 0 1752 246">
  <defs>
    <style>
      .cls-1 {
        fill: #fff;
        fill-rule: evenodd;
      }
    </style>
  </defs>
  <path id="Mic_Drop_Results" data-name="Mic Drop Results" class="cls-1" d="M170,186.375v-2l-4.4-1.4a7.891,7.891,0,0,1-5.1-3.9,16.438,16.438,0,0,1-1.3-7.1v-50.4l-0.6-49.8,43.6,114.6h10l41.8-116-0.4,57.2v45a15.39,15.39,0,0,1-1,6.2q-1,2.2-4.8,3.8l-4.2,1.8v2h49.8v-2l-4-1.8q-3.8-1.6-4.8-3.8a15.338,15.338,0,0,1-1-6.2V67.975a13.236,13.236,0,0,1,1.4-6.5,9.314,9.314,0,0,1,5.2-3.9l3.2-1.2v-2H254l-34.8,96.8-37-96.8H143.6v2l5.2,2.4q3.8,1.6,4.7,4a18.655,18.655,0,0,1,.9,6.4v102.4q0,9.2-6.8,11.4l-4,1.4v2H170Zm167.2-113.9a14.276,14.276,0,0,0,4.6-10.9,14.2,14.2,0,0,0-4.6-11,16.283,16.283,0,0,0-11.4-4.2,16.634,16.634,0,0,0-11.5,4.2,14.051,14.051,0,0,0-4.7,11,14.127,14.127,0,0,0,4.7,10.9,16.4,16.4,0,0,0,11.5,4.3A16.056,16.056,0,0,0,337.2,72.475Zm11.8,113.9v-2l-2-.6a9.189,9.189,0,0,1-5.3-3.6,11.96,11.96,0,0,1-1.5-6.4v-56l0.6-28.4-2-2-36.6,11.8v2l2.8,0.6q4,0.8,5.5,2.9t1.5,6.3v62.6a11.96,11.96,0,0,1-1.5,6.4q-1.5,2.4-5.5,3.6l-2.8.8v2H349Zm83-3.4a38.291,38.291,0,0,0,15.4-18.2l-2-1.6a41.388,41.388,0,0,1-11.2,10.2q-5.8,3.4-15.2,3.4-15.6,0-23.1-10.7t-7.5-30.9q0-23.2,6.7-33.8t18.9-10.6a8.62,8.62,0,0,1,4.7,1.1q1.7,1.1,2.5,4.5a24.967,24.967,0,0,1,0,6.3,43.825,43.825,0,0,0-.2,7.5,18.99,18.99,0,0,0,4.2,11,11.786,11.786,0,0,0,9.4,4.2,12.547,12.547,0,0,0,8.8-3.1q3.4-3.1,3.4-8.7a22.089,22.089,0,0,0-4.2-12.7,30.015,30.015,0,0,0-12.2-9.9q-8-3.8-19.6-3.8a56.37,56.37,0,0,0-26.1,6.1,47.332,47.332,0,0,0-19,17.6q-7.1,11.5-7.1,27.7,0,16.4,6.5,27.7a43.633,43.633,0,0,0,17.6,17.2,51.814,51.814,0,0,0,24.7,5.9Q421.6,189.375,432,182.975Zm117.8,3.4q21.8,0,37.9-7.8a58.547,58.547,0,0,0,25.1-22.6q9-14.8,9-35.8,0-20.6-8.3-35.3a55.973,55.973,0,0,0-23.6-22.6q-15.3-7.9-36.5-7.9H500.6v2l4.2,1.6q6.4,2.2,6.4,10.2v104.4q0,7.6-6.4,10.2l-4.2,1.6v2h49.2Zm-8.6-128h9.4q14,0,22.6,5.7t12.7,19.2q4.1,13.5,4.1,37.1t-4.1,37.1q-4.1,13.5-12.9,19.2t-23.2,5.7h-8.6v-124Zm140.4,128v-2l-6.4-1.8q-7-2-7-10v-55.8a51.84,51.84,0,0,1,2.5-5.7,15.073,15.073,0,0,1,3.3-4.3q2.2-2.8,4.8-2.5a6.659,6.659,0,0,1,4.6,3.1l0.4,0.4q6.4,8.4,14.8,8.4a13.036,13.036,0,0,0,9.3-3.7q3.9-3.7,3.9-10.5a14.761,14.761,0,0,0-4-10.6q-4-4.2-11.6-4.2a22.621,22.621,0,0,0-10.9,3,40.946,40.946,0,0,0-10,7.7,42.053,42.053,0,0,0-7.3,10.3v-1.6l-1.8-17.2-2-2-34.4,11.6v2l3,0.8q4,0.8,5.5,2.9t1.5,6.5v62.6a11.538,11.538,0,0,1-1.5,6.2q-1.5,2.4-5.5,3.6l-3,.8v2h51.8Zm110.1-3.3a43.394,43.394,0,0,0,17.2-17.8q6.1-11.5,6.1-27.3t-6.5-27.2a44.7,44.7,0,0,0-17.7-17.5,55.735,55.735,0,0,0-50.9.1,45.169,45.169,0,0,0-17.8,17.6q-6.5,11.4-6.5,27t6.1,27.2a43.05,43.05,0,0,0,17.3,17.9q11.2,6.3,26.4,6.3T791.7,183.075Zm-37.6-1.7q-4.3-4-6.2-14.2t-1.9-28.8q0-18.8,1.9-29t6.2-14.2q4.3-4,11.3-4t11.2,4q4.2,4,6.1,14.2t1.9,29q0,18.6-1.9,28.8t-6.1,14.2q-4.2,4-11.2,4T754.1,181.375Zm116.3,51v-2l-3.8-1q-7.2-2-7.2-10v-34.6q10.8,4.6,26.6,4.6,20.2,0,31.3-13.8t11.1-37.8q0-24.4-10.1-37.5T891,87.175a63.47,63.47,0,0,0-16.7,2.2,57.144,57.144,0,0,0-14.7,6.2l-1.8-6.2-2-2-34,11.6v2l2.8,0.6q4,0.8,5.5,3t1.5,6.6v108.8q0,7.6-7.4,9.6l-2.4.8v2h48.6Zm-10.4-52v-80.6q9-4.8,16.4-4.8,10.6,0,16.2,9.7t5.6,33.9q0,24.2-5.9,34.6t-15.9,10.4a41.8,41.8,0,0,1-16.4-3.2h0Zm172.6,6v-2l-4.8-1.8q-3.795-1.2-5-3.6a13.875,13.875,0,0,1-1.2-6.2v-49.4h13.6l29.6,63h35.8v-1.8l-2.6-1a21.142,21.142,0,0,1-6.1-3.7,20.1,20.1,0,0,1-4.1-5.5l-27.8-55.2q14.2-4.8,20.8-13.6t6.6-17.6q0-15.8-12.6-24.7t-36.2-8.9H981.4v2l4.6,1.8q3.8,1.4,4.9,3.7a14.881,14.881,0,0,1,1.1,6.3v104.6a14.291,14.291,0,0,1-1.2,6.5q-1.2,2.3-5.2,3.7l-4.2,1.4v2h51.2Zm-11-128h10.6q14.205,0,20.2,7.5t6,22.9q0,15.2-6.4,22.9t-20.8,7.7h-9.6v-61Zm108.3,34.8a48.461,48.461,0,0,0-18.5,17.5q-7.2,11.5-7.2,27.9,0,15.8,6.2,27.2a43.058,43.058,0,0,0,17.2,17.5,51.079,51.079,0,0,0,25.2,6.1q14.4,0,24.7-6.2a45.923,45.923,0,0,0,16.5-17.2l-2-1.8a39.6,39.6,0,0,1-11.6,9.4q-6.2,3.2-16.2,3.2-14.805,0-22.3-9.5t-7.7-31.1h59.6a17.7,17.7,0,0,0,.8-4.1c0.13-1.531.2-3.031,0.2-4.5a42.941,42.941,0,0,0-4.9-20.7,36.205,36.205,0,0,0-14.1-14.4q-9.195-5.3-22.2-5.3A49.838,49.838,0,0,0,1129.9,93.175Zm36.9,7.6q3.6,9.6,1.6,31.4h-34.2q0.195-16.2,2.5-25.1t6.4-12.4a14.735,14.735,0,0,1,9.9-3.5Q1163.2,91.175,1166.8,100.775Zm104.9,79.8a27.991,27.991,0,0,0,11.5-23.4,28.594,28.594,0,0,0-6.2-18.5q-6.2-7.7-20.6-12.1l-9-2.6q-10.005-3.4-15.1-7.4a13,13,0,0,1-5.1-10.8,12.077,12.077,0,0,1,6-10.8,23.536,23.536,0,0,1,12.8-3.8q7.395,0,11.1,2.7t7.5,9.3l7,12.4h2l1.2-21.6a57.81,57.81,0,0,0-13.3-5.1,61.393,61.393,0,0,0-14.7-1.7q-19.4,0-29.8,9.2t-10.4,22.4a26.429,26.429,0,0,0,7,18.6q7.005,7.6,19.2,11.2l8.4,2.6q11.4,3.4,15.6,7.6a14.619,14.619,0,0,1,4.2,10.8,13.536,13.536,0,0,1-5.9,11.5q-5.895,4.3-15.5,4.3-8.2,0-13.5-3.9t-9.7-11.9l-6.8-12h-2l-0.2,23.8a81.67,81.67,0,0,0,14.4,5.7,62.3,62.3,0,0,0,17.6,2.3Q1260.205,189.375,1271.7,180.575Zm73.4,5.1a71.263,71.263,0,0,0,14.3-9.1l1.8,11.8,35-2v-2l-2-.6q-4.005-1.6-5.2-4a15.531,15.531,0,0,1-1.2-6.8v-54.2l0.6-28.4-2-2-35,7.6v2l2,0.6c2.53,0.534,4.27,1.434,5.2,2.7s1.4,3.434,1.4,6.5l-0.8,65.2a35.847,35.847,0,0,1-8.8,4.8,29.085,29.085,0,0,1-10,1.6,14.3,14.3,0,0,1-9.3-3q-3.7-3-3.7-9.4v-48.2l1-28.4-2-2-35.8,7v2l2.4,0.8a8.722,8.722,0,0,1,5,2.8q1.605,2,1.6,6.6l-0.6,51.4q-0.2,11,3.5,17.7a22.075,22.075,0,0,0,10.2,9.7,33.7,33.7,0,0,0,14.3,3A41.389,41.389,0,0,0,1345.1,185.675Zm107.5,0.7v-2l-2.6-.6a9.493,9.493,0,0,1-5.4-3.7,11.848,11.848,0,0,1-1.6-6.5q0-7.2-.1-14.5t-0.1-14.7v-68.4l0.8-28-2.4-1.8-36.6,8.6v2l2.6,0.6c2.67,0.669,4.53,1.7,5.6,3.1a9.911,9.911,0,0,1,1.6,6.1v107q0,7.6-7.2,10l-2.4.8v2h47.8Zm63.8-1a29.484,29.484,0,0,0,11-10.8l-2-2a32.816,32.816,0,0,1-6.4,5.7,13.172,13.172,0,0,1-7.4,2.1,9.969,9.969,0,0,1-7.9-3.6q-3.1-3.6-3.1-10.6v-72h22.6v-4h-22.4l0.6-28h-2l-16.4,18.2a43.312,43.312,0,0,1-8.9,7,38.009,38.009,0,0,1-10.7,4l-4.8.8v2h13.8v68.4q0,14,7.1,20.4t19.9,6.4Q1509.4,189.375,1516.4,185.375Zm85.3-4.8a27.991,27.991,0,0,0,11.5-23.4,28.594,28.594,0,0,0-6.2-18.5q-6.2-7.7-20.6-12.1l-9-2.6q-10.005-3.4-15.1-7.4a13,13,0,0,1-5.1-10.8,12.077,12.077,0,0,1,6-10.8,23.536,23.536,0,0,1,12.8-3.8q7.395,0,11.1,2.7t7.5,9.3l7,12.4h2l1.2-21.6a57.81,57.81,0,0,0-13.3-5.1,61.393,61.393,0,0,0-14.7-1.7q-19.4,0-29.8,9.2t-10.4,22.4a26.429,26.429,0,0,0,7,18.6q7.005,7.6,19.2,11.2l8.4,2.6q11.4,3.4,15.6,7.6a14.619,14.619,0,0,1,4.2,10.8,13.536,13.536,0,0,1-5.9,11.5q-5.895,4.3-15.5,4.3-8.2,0-13.5-3.9t-9.7-11.9l-6.8-12h-2l-0.2,23.8a81.67,81.67,0,0,0,14.4,5.7,62.3,62.3,0,0,0,17.6,2.3Q1590.205,189.375,1601.7,180.575Z"/>
</svg>
